# xmcd
#
# Track frame offsets:
#	150
#	16683
#	34420
#	58563
#	81643
#	91594
#	117354
#	130866
#	144575
#	149410
#	164512
#	181286
#	193023
#	212243
#	228311
#	242013
#	259123
#	277677
#	297352
#	314909
#
# Disc length: 4629 seconds
#
# Revision: 0
# Processed by: cddbd v1.5.1PL2 Copyright (c) Steve Scherf et al.
# Submitted via: dBpowerAMP V4.0
#
DISCID=2b121314
DTITLE=Sonny Boy Williamson - UK Blues
DYEAR=2001
DGENRE=Blues
TTITLE0=Bye Bye Bird
TTITLE1=Mister Downchild
TTITLE2=The River Rhine
TTITLE3=23 Hours Too Long
TTITLE4=A Lost Care
TTITLE5=Take it Easy Baby
TTITLE6=Out Of The Water Coast
TTITLE7=Western Arizona
TTITLE8=Slow Walk
TTITLE9=Highway 69
TTITLE10=My Little Cabin
TTITLE11=Sonny's Slow Walk
TTITLE12=Pontiac Blues
TTITLE13=My Babe
TTITLE14=I Don't Care No More
TTITLE15=Baby Don't You Worry
TTITLE16=Night Time Is The Right Time (with Eric Burdon)
TTITLE17=I'm Gonna Put You Down
TTITLE18=Flattenin' Frogs For Snakes
TTITLE19=Nobody But You (with Eric Burton)
EXTD=
EXTT0=
EXTT1=
EXTT2=
EXTT3=
EXTT4=
EXTT5=
EXTT6=
EXTT7=
EXTT8=
EXTT9=
EXTT10=
EXTT11=
EXTT12=
EXTT13=
EXTT14=
EXTT15=
EXTT16=
EXTT17=
EXTT18=
EXTT19=
PLAYORDER=
